<svg width="21" height="21" viewBox="0 0 21 21" fill="none" xmlns="http://www.w3.org/2000/svg">
<g id="SVG" clip-path="url(#clip0_1_826)">
<g id="&#229;&#136;&#135;&#229;&#155;&#190;">
<g id="icon/download/normal">
<g id="&#231;&#188;&#150;&#231;&#187;&#132;-5">
<path id="&#231;&#159;&#169;&#229;&#189;&#162;" d="M18.5255 15.9546H4.16182C3.91078 15.9546 3.70728 16.1581 3.70728 16.4091V17.1364C3.70728 17.3874 3.91078 17.5909 4.16182 17.5909H18.5255C18.7765 17.5909 18.98 17.3874 18.98 17.1364V16.4091C18.98 16.1581 18.7765 15.9546 18.5255 15.9546Z" fill="white"/>
<path id="&#231;&#159;&#169;&#229;&#189;&#162;_2" d="M18.5255 3.22728H4.16182C3.91078 3.22728 3.70728 3.43079 3.70728 3.68183V4.4091C3.70728 4.66014 3.91078 4.86364 4.16182 4.86364H18.5255C18.7765 4.86364 18.98 4.66014 18.98 4.4091V3.68183C18.98 3.43079 18.7765 3.22728 18.5255 3.22728Z" fill="white"/>
<path id="&#231;&#159;&#169;&#229;&#189;&#162;_3" d="M4.88909 3.22728H4.16182C3.91078 3.22728 3.70728 3.43079 3.70728 3.68183V17.1364C3.70728 17.3874 3.91078 17.5909 4.16182 17.5909H4.88909C5.14013 17.5909 5.34364 17.3874 5.34364 17.1364V3.68183C5.34364 3.43079 5.14013 3.22728 4.88909 3.22728Z" fill="white"/>
<path id="&#231;&#159;&#169;&#229;&#189;&#162;_4" d="M18.5254 3.22728H17.7982C17.5471 3.22728 17.3436 3.43079 17.3436 3.68183V17.1364C17.3436 17.3874 17.5471 17.5909 17.7982 17.5909H18.5254C18.7765 17.5909 18.98 17.3874 18.98 17.1364V3.68183C18.98 3.43079 18.7765 3.22728 18.5254 3.22728Z" fill="white"/>
<path id="&#229;&#189;&#162;&#231;&#138;&#182;&#231;&#187;&#147;&#229;&#144;&#136;" d="M11.8891 6.4091C12.1402 6.4091 12.3437 6.61261 12.3437 6.86365L12.3428 11.4273L13.2609 10.5096C13.4384 10.3321 13.7262 10.3321 13.9038 10.5096L14.3323 10.9382C14.5098 11.1157 14.5098 11.4035 14.3323 11.581L11.9753 13.938C11.708 14.2053 11.3452 14.243 10.9981 14.0087L10.9039 13.938L8.54689 11.581C8.36938 11.4035 8.36938 11.1157 8.54689 10.9382L8.97544 10.5096C9.15295 10.3321 9.44075 10.3321 9.61826 10.5096L10.5247 11.4164L10.5255 6.86365C10.5255 6.61261 10.729 6.4091 10.98 6.4091H11.8891Z" fill="white"/>
</g>
</g>
</g>
</g>
<defs>
<clipPath id="clip0_1_826">
<rect width="20" height="20" fill="white" transform="translate(0.97998 0.5)"/>
</clipPath>
</defs>
</svg>
