<svg width="32" height="33" viewBox="0 0 32 33" fill="none" xmlns="http://www.w3.org/2000/svg">
<g id="Frame">
<g id="&#230;&#142;&#167;&#228;&#187;&#182;">
<g id="icon/playlist/normal">
<path id="&#229;&#189;&#162;&#231;&#138;&#182;&#231;&#187;&#147;&#229;&#144;&#136;" d="M16 6.5C21.5229 6.5 26 10.9772 26 16.5C26 22.0228 21.5229 26.5 16 26.5C10.4772 26.5 6.00003 22.0228 6.00003 16.5C6.00003 10.9772 10.4772 6.5 16 6.5ZM16 8.5C11.5818 8.5 8.00003 12.0817 8.00003 16.5C8.00003 20.9183 11.5818 24.5 16 24.5C20.4183 24.5 24 20.9183 24 16.5C24 12.0817 20.4183 8.5 16 8.5Z" fill="white"/>
<path id="&#231;&#159;&#169;&#229;&#189;&#162;" fill-rule="evenodd" clip-rule="evenodd" d="M15.5 11.5H16.5C16.7762 11.5 17 11.7239 17 12V14.2V16.4C17 16.6761 16.7762 16.9 16.5 16.9H15.5C15.2239 16.9 15 16.6761 15 16.4V14.2V12C15 11.7239 15.2239 11.5 15.5 11.5Z" fill="white"/>
<path id="&#231;&#159;&#169;&#229;&#189;&#162;&#229;&#164;&#135;&#228;&#187;&#189;" fill-rule="evenodd" clip-rule="evenodd" d="M19.8937 18.2379L19.3345 19.0669C19.1801 19.2959 18.8693 19.3563 18.6404 19.2019L16.9823 18.0835L15.3242 16.9651C15.0953 16.8107 15.0349 16.4999 15.1893 16.271L15.7485 15.4419C15.9029 15.213 16.2137 15.1526 16.4426 15.307L18.1007 16.4254L19.7588 17.5438C19.9877 17.6982 20.0481 18.009 19.8937 18.2379Z" fill="white"/>
</g>
</g>
</g>
</svg>
