<svg width="33" height="33" viewBox="0 0 33 33" fill="none" xmlns="http://www.w3.org/2000/svg">
<g id="SVG">
<g id="&#230;&#142;&#167;&#228;&#187;&#182;">
<g id="icon/language/normal">
<path id="&#229;&#189;&#162;&#231;&#138;&#182;&#231;&#187;&#147;&#229;&#144;&#136;" d="M16.8 6.5C22.3228 6.5 26.8 10.9772 26.8 16.5C26.8 22.0228 22.3228 26.5 16.8 26.5C11.2771 26.5 6.79999 22.0228 6.79999 16.5C6.79999 10.9772 11.2771 6.5 16.8 6.5ZM19.7681 17.5011H13.8319C13.9651 19.5768 14.5084 21.4702 15.3428 22.8698C15.5226 23.1714 15.829 23.5415 16.2621 23.9802L16.4555 24.1724C16.6484 24.3608 16.9559 24.3623 17.1506 24.1758C17.66 23.6881 18.0289 23.2528 18.2572 22.8698C19.0915 21.4702 19.6349 19.5768 19.7681 17.5011ZM11.8247 17.5004L8.862 17.501C9.20482 20.2475 10.9399 22.5615 13.3386 23.7145C12.5029 22.1121 11.9456 19.9347 11.8247 17.5004ZM24.738 17.501L21.7753 17.5004C21.6544 19.9347 21.097 22.1121 20.2619 23.7152C22.6601 22.5615 24.3952 20.2475 24.738 17.501ZM13.338 9.28476L13.3119 9.29845C10.9267 10.4559 9.20312 12.7633 8.86188 15.5L11.8246 15.5006C11.9454 13.0659 12.5028 10.8881 13.338 9.28476ZM16.4492 8.82464C15.9399 9.31273 15.5711 9.74825 15.3428 10.1312C14.5084 11.5308 13.9651 13.4242 13.8319 15.4999H19.7681C19.6349 13.4242 19.0915 11.5308 18.2572 10.1312C18.0774 9.82965 17.771 9.45939 17.338 9.02043L17.1447 8.82805C16.9517 8.63946 16.644 8.63795 16.4492 8.82464ZM20.2613 9.28553L20.2839 9.32724C21.1069 10.9265 21.6556 13.0874 21.7753 15.5006L24.7381 15.5C24.3956 12.7531 22.6604 10.4386 20.2613 9.28553Z" fill="white"/>
</g>
</g>
</g>
</svg>
