<svg width="82" height="27" viewBox="0 0 82 27" fill="none" xmlns="http://www.w3.org/2000/svg">
<g id="SVG" clip-path="url(#clip0_1_770)">
<g id="&#231;&#148;&#187;&#230;&#157;&#191;">
<g id="logo-&#233;&#161;&#182;&#229;&#175;&#188;">
<path id="&#229;&#189;&#162;&#231;&#138;&#182;" fill-rule="evenodd" clip-rule="evenodd" d="M40.7307 26.0535C40.7307 26.171 40.8335 26.2661 40.9604 26.2661H46.4315C46.5584 26.2661 46.6612 26.171 46.6612 26.0535V1.42297C46.6612 1.30554 46.5584 1.21034 46.4315 1.21034H40.9604C40.8335 1.21034 40.7307 1.30554 40.7307 1.42297V26.0535ZM0.508791 26.0535C0.508791 26.171 0.611639 26.2661 0.738512 26.2661H6.20957C6.33644 26.2661 6.43929 26.171 6.43929 26.0535V10.5478C6.43929 10.4303 6.33644 10.3352 6.20957 10.3352H0.738512C0.611639 10.3352 0.508791 10.4303 0.508791 10.5478V26.0535ZM24.3948 20.8676C20.4314 21.588 16.6122 18.8689 15.881 14.8064C15.1498 10.7438 17.7792 6.8527 21.7425 6.13231C25.7059 5.41203 29.5252 8.13104 30.2564 12.1936C30.9876 16.2561 28.3581 20.1472 24.3948 20.8676ZM37.1202 22.0333L34.4136 19.8502C34.3577 19.8052 34.3214 19.7434 34.3075 19.677C34.2934 19.6105 34.3018 19.5394 34.3354 19.4759C35.6298 17.0318 36.1464 14.1517 35.6186 11.219C34.3685 4.27347 27.7363 -0.335729 20.8051 0.924078C13.874 2.18378 9.26867 8.83554 10.5188 15.7811C11.7688 22.7265 18.401 27.3357 25.3322 26.076C27.2591 25.7257 29.0057 24.958 30.4973 23.8838C30.6075 23.8044 30.7561 23.8069 30.8617 23.8921L33.765 26.2338C33.8634 26.3133 34.0091 26.2952 34.0904 26.1934L37.1513 22.3613C37.2325 22.2596 37.2186 22.1127 37.1202 22.0333ZM81.7703 1.21039H76.2992C76.1723 1.21039 76.0695 1.30559 76.0695 1.42292V26.0536C76.0695 26.1709 76.1723 26.2661 76.2992 26.2661H81.7703C81.8972 26.2661 82 26.1709 82 26.0536V1.42292C82 1.30559 81.8972 1.21039 81.7703 1.21039ZM3.47406 0.719239C1.55536 0.719239 0 2.28222 0 4.21031C0 6.13841 1.55536 7.70139 3.47406 7.70139C5.39276 7.70139 6.94813 6.13841 6.94813 4.21031C6.94813 2.28222 5.39276 0.719239 3.47406 0.719239ZM73.1732 1.21039H67.3433C67.2429 1.21039 67.1505 1.26164 67.1032 1.34382L61.6862 11.0227C61.6862 11.0227 61.6566 11.0775 61.613 11.0921L61.5934 11.0957C61.5529 11.0946 61.521 11.0541 61.5076 11.0339L61.5007 11.0227L56.0837 1.34382C56.0365 1.26164 55.9441 1.21039 55.8435 1.21039H50.0138C49.8578 1.21039 49.6787 1.37188 49.8068 1.61289L58.4715 16.2633C58.5545 16.4047 58.5982 16.5659 58.5982 16.7301V26.011C58.5982 26.1519 58.7118 26.2661 58.852 26.2661H64.3349C64.475 26.2661 64.5887 26.1519 64.5887 26.011V16.7301C64.5887 16.5659 64.6325 16.4047 64.7154 16.2633L73.3801 1.61289C73.5082 1.37188 73.329 1.21039 73.1732 1.21039Z" fill="#00DC5A"/>
</g>
</g>
</g>
<defs>
<clipPath id="clip0_1_770">
<rect width="82" height="26" fill="white" transform="translate(0 0.5)"/>
</clipPath>
</defs>
</svg>
