<svg width="21" height="21" viewBox="0 0 21 21" fill="none" xmlns="http://www.w3.org/2000/svg">
<g id="SVG">
<g id="&#230;&#142;&#167;&#228;&#187;&#182;">
<g id="icon/footer/phone">
<g id="&#229;&#189;&#162;&#231;&#138;&#182;&#231;&#187;&#147;&#229;&#144;&#136;">
<path id="Vector" d="M14.9968 2.30664C15.9173 2.30664 16.6635 3.05283 16.6635 3.97331V17.3066C16.6635 18.2271 15.9173 18.9733 14.9968 18.9733H6.66349C5.74302 18.9733 4.99683 18.2271 4.99683 17.3066V3.97331C4.99683 3.05283 5.74302 2.30664 6.66349 2.30664H14.9968ZM14.9968 14.8066H6.66349V17.3066H14.9968V14.8066ZM10.8302 15.2233C11.2904 15.2233 11.6635 15.5964 11.6635 16.0566C11.6635 16.5169 11.2904 16.89 10.8302 16.89C10.3699 16.89 9.99683 16.5169 9.99683 16.0566C9.99683 15.5964 10.3699 15.2233 10.8302 15.2233ZM14.9968 3.97331H6.66349V13.14H14.9968V3.97331Z" fill="white"/>
</g>
</g>
</g>
</g>
</svg>
