<svg width="24" height="25" viewBox="0 0 24 25" fill="none" xmlns="http://www.w3.org/2000/svg">
<g id="Button - search button &#226;&#134;&#146; SVG">
<g id="&#230;&#142;&#167;&#228;&#187;&#182;">
<g id="icon/search">
<path id="&#229;&#189;&#162;&#231;&#138;&#182;&#231;&#187;&#147;&#229;&#144;&#136;" d="M11.5 4.5C15.6421 4.5 19 7.85786 19 12C19 13.7425 18.4057 15.3463 17.4088 16.6196L20.1794 19.3902C20.3746 19.5854 20.3746 19.902 20.1794 20.0973L19.4723 20.8044C19.277 20.9996 18.9604 20.9996 18.7652 20.8044L15.9776 18.0173C14.728 18.9487 13.1784 19.5 11.5 19.5C7.35786 19.5 4 16.1421 4 12C4 7.85786 7.35786 4.5 11.5 4.5ZM11.5 6.5C8.46243 6.5 6 8.96243 6 12C6 15.0376 8.46243 17.5 11.5 17.5C14.5376 17.5 17 15.0376 17 12C17 8.96243 14.5376 6.5 11.5 6.5Z" fill="white"/>
</g>
</g>
</g>
</svg>
