<svg width="21" height="21" viewBox="0 0 21 21" fill="none" xmlns="http://www.w3.org/2000/svg">
<g id="SVG" clip-path="url(#clip0_8_788)">
<g id="&#230;&#142;&#167;&#228;&#187;&#182;">
<g id="icon/footer/TV">
<path id="&#229;&#189;&#162;&#231;&#138;&#182;&#231;&#187;&#147;&#229;&#144;&#136;" fill-rule="evenodd" clip-rule="evenodd" d="M14.3786 4.08828L14.428 4.14493L14.9179 4.81911C15.0381 4.9846 15.0189 5.20887 14.8823 5.35166L14.8257 5.40111L13.9225 6.05648H16.8109C17.7313 6.05648 18.4775 6.80267 18.4775 7.72314V15.2231C18.4775 16.1436 17.7313 16.8898 16.8109 16.8898H5.14421C4.22373 16.8898 3.47754 16.1436 3.47754 15.2231V7.72314C3.47754 6.80267 4.22373 6.05648 5.14421 6.05648H7.88504L6.98266 5.40111C6.79649 5.26585 6.75522 5.00528 6.89048 4.81911L7.3803 4.14493C7.51556 3.95876 7.77613 3.91749 7.9623 4.05275L10.659 6.01203L10.7092 6.05648H11.0984L11.1493 6.01203L13.846 4.05275C14.0115 3.93252 14.2358 3.95177 14.3786 4.08828ZM16.8109 7.72314H5.14421V15.2231H16.8109V7.72314ZM15.1442 12.7231C15.6044 12.7231 15.9775 13.0962 15.9775 13.5565C15.9775 14.0167 15.6044 14.3898 15.1442 14.3898C14.684 14.3898 14.3109 14.0167 14.3109 13.5565C14.3109 13.0962 14.684 12.7231 15.1442 12.7231Z" fill="white"/>
</g>
</g>
</g>
<defs>
<clipPath id="clip0_8_788">
<rect width="20" height="20" fill="white" transform="translate(0.977539 0.639893)"/>
</clipPath>
</defs>
</svg>
