<svg width="32" height="32" viewBox="0 0 32 33" fill="none" xmlns="http://www.w3.org/2000/svg">
<g id="Button &#226;&#134;&#146; SVG">
<g id="&#233;&#161;&#181;&#233;&#157;&#162;-1">
<g id="01-&#233;&#161;&#182;&#229;&#175;&#188;&#232;&#136;&#170;_&#230;&#156;&#170;&#231;&#153;&#187;&#229;&#133;&#165;_&#230;&#146;&#173;&#229;&#141;&#149;&#230;&#181;&#174;&#229;&#177;&#130;">
<g id="Member-login">
<g id="icon/outlined/my-account">
<path id="MemberLoginIconpath-1" fill-rule="evenodd" clip-rule="evenodd" d="M16 7.61111C19.4365 7.61111 22.2223 10.3969 22.2223 13.8333C22.2223 16.004 21.1108 17.915 19.4259 19.0283C21.7234 20.0936 23.433 22.1947 23.9502 24.6864L23.9938 24.9134C24.0328 25.1339 23.8856 25.3442 23.6651 25.3832C23.642 25.3873 23.6185 25.3894 23.595 25.3894L22.6282 25.3904C22.3697 25.3907 22.1412 25.2326 22.0471 24.9985L22.0183 24.9074C21.375 22.1616 19.0168 20.0664 16.0228 20.0556L16 20.0556H15.9787L15.7573 20.0601C12.9507 20.1667 10.8158 22.1201 10.125 24.6915L10.0707 24.9074C10.0117 25.1595 9.80514 25.3458 9.5554 25.3839L9.45992 25.391L8.40986 25.3895C8.18319 25.3893 7.99969 25.2053 8 24.9786L8.00161 24.9428L8.00632 24.9074C8.46518 22.3236 10.2157 20.1322 12.5833 19.0336C10.8932 17.9217 9.77782 16.0078 9.77782 13.8333C9.77782 10.3969 12.5636 7.61111 16 7.61111ZM16 9.38889C13.5454 9.38889 11.5556 11.3787 11.5556 13.8333C11.5556 16.2826 13.5368 18.2691 15.984 18.2778L16.0133 18.2778L16.0267 18.2769L16.1928 18.2737C18.558 18.1727 20.4445 16.2233 20.4445 13.8333C20.4445 11.3787 18.4546 9.38889 16 9.38889Z" fill="white"/>
</g>
</g>
</g>
</g>
</g>
</svg>
