<svg width="18" height="19" viewBox="0 0 18 19" fill="none" xmlns="http://www.w3.org/2000/svg">
<g id="ic/header/vip">
<g id="&#231;&#188;&#150;&#231;&#187;&#132;">
<path id="&#229;&#189;&#162;&#231;&#138;&#182;&#231;&#187;&#147;&#229;&#144;&#136;" fill-rule="evenodd" clip-rule="evenodd" d="M9.61659 2.0022C9.65573 2.03547 9.69212 2.07186 9.7254 2.11101L12.9165 5.86526C13.0405 6.01118 13.2399 6.06856 13.4226 6.01089L16.6656 4.98677C17.0417 4.86802 17.4428 5.0766 17.5615 5.45266C17.5925 5.55069 17.6019 5.65424 17.5892 5.75625L16.364 15.5578C16.3081 15.9912 15.9646 16.3313 15.5305 16.3818C13.3537 16.6424 11.1768 16.7727 8.99998 16.7727C6.82314 16.7727 4.64629 16.6424 2.46944 16.3818C2.03533 16.3313 1.69182 15.9912 1.63599 15.5578L0.410802 5.75625C0.361887 5.36493 0.639457 5.00806 1.03077 4.95914C1.13278 4.94639 1.23633 4.95582 1.33436 4.98677L4.5774 6.01089C4.76002 6.06856 4.95942 6.01118 5.08346 5.86526L8.27457 2.11101C8.61511 1.71037 9.21595 1.66166 9.61659 2.0022ZM11.5983 8.3948C11.3798 8.2486 11.0841 8.30716 10.9379 8.52562L8.98447 11.444L7.03106 8.52562C6.8848 8.30716 6.58915 8.2486 6.37066 8.3948L5.55014 8.94395C5.33166 9.09018 5.27308 9.38584 5.41931 9.60433L8.17861 13.7271L8.21993 13.7844C8.62027 14.3002 9.41954 14.2811 9.79033 13.7271L12.5496 9.60433C12.6959 9.38584 12.6373 9.09018 12.4188 8.94395L11.5983 8.3948Z" fill="#111319"/>
</g>
</g>
</svg>
